<?xml version="1.0" encoding="UTF-8" standalone="no"?>
<!DOCTYPE svg PUBLIC "-//W3C//DTD SVG 1.0//EN" "http://www.w3.org/TR/2001/PR-SVG-20010719/DTD/svg10.dtd">
<svg width="63cm" height="31cm" viewBox="122 -499 1256 606" xmlns="http://www.w3.org/2000/svg" xmlns:xlink="http://www.w3.org/1999/xlink">
  <g>
    <rect style="fill: #ffffff" x="306" y="-283" width="73" height="36"/>
    <rect style="fill: none; fill-opacity:0; stroke-width: 4; stroke: #0000ff" x="306" y="-283" width="73" height="36"/>
    <text font-size="12.8" style="fill: #000000;text-anchor:middle;font-family:Cascadia Code SemiBold;font-style:normal;font-weight:600" x="342.5" y="-259.4">Animal</text>
  </g>
  <g>
    <rect style="fill: #ffffff" x="1075.5" y="-124.4" width="103" height="36"/>
    <rect style="fill: none; fill-opacity:0; stroke-width: 4; stroke: #0000ff" x="1075.5" y="-124.4" width="103" height="36"/>
    <text font-size="12.8" style="fill: #000000;text-anchor:middle;font-family:Cascadia Code SemiBold;font-style:normal;font-weight:600" x="1127" y="-100.8">NuevoDueño</text>
  </g>
  <g>
    <line style="fill: none; fill-opacity:0; stroke-width: 2; stroke: #000000" x1="306" y1="-265" x2="213" y2="-345"/>
    <path style="fill: #000000" d="M 213 -345 C 215.282,-347.653 220.218,-348.024 222.872,-345.742 C 225.525,-343.459 225.896,-338.524 223.613,-335.87 C 221.331,-333.217 216.395,-332.846 213.742,-335.128 C 211.088,-337.411 210.718,-342.347 213,-345z"/>
    <path style="fill: none; fill-opacity:0; stroke-width: 2; stroke: #000000" d="M 213 -345 C 215.282,-347.653 220.218,-348.024 222.872,-345.742 C 225.525,-343.459 225.896,-338.524 223.613,-335.87 C 221.331,-333.217 216.395,-332.846 213.742,-335.128 C 211.088,-337.411 210.718,-342.347 213,-345"/>
  </g>
  <text font-size="12.8" style="fill: #000000;text-anchor:start;font-family:sans-serif;font-style:normal;font-weight:700" x="139" y="-337">
    <tspan x="139" y="-337">idAnimal</tspan>
  </text>
  <g>
    <line style="fill: none; fill-opacity:0; stroke-width: 2; stroke: #000000" x1="306" y1="-265" x2="219.416" y2="-308.292"/>
    <path style="fill: #ffffff" d="M 206.894 -314.553 C 208.46,-317.683 213.155,-319.249 216.286,-317.683 C 219.416,-316.118 220.982,-311.422 219.416,-308.292 C 217.851,-305.161 213.155,-303.596 210.025,-305.161 C 206.894,-306.727 205.329,-311.422 206.894,-314.553z"/>
    <path style="fill: none; fill-opacity:0; stroke-width: 2; stroke: #000000" d="M 206.894 -314.553 C 208.46,-317.683 213.155,-319.249 216.286,-317.683 C 219.416,-316.118 220.982,-311.422 219.416,-308.292 C 217.851,-305.161 213.155,-303.596 210.025,-305.161 C 206.894,-306.727 205.329,-311.422 206.894,-314.553"/>
  </g>
  <text font-size="12.8" style="fill: #000000;text-anchor:start;font-family:sans-serif;font-style:normal;font-weight:normal" x="132" y="-309">
    <tspan x="132" y="-309">TipoAnimal</tspan>
  </text>
  <g>
    <line style="fill: none; fill-opacity:0; stroke-width: 2; stroke: #000000" x1="749" y1="-433.7" x2="726.924" y2="-454.471"/>
    <path style="fill: #ffffff" d="M 716.728 -464.065 C 719.127,-466.614 724.074,-466.764 726.623,-464.366 C 729.172,-461.968 729.323,-457.02 726.924,-454.471 C 724.526,-451.922 719.579,-451.771 717.03,-454.17 C 714.481,-456.568 714.33,-461.516 716.728,-464.065z"/>
    <path style="fill: none; fill-opacity:0; stroke-width: 2; stroke: #000000" d="M 716.728 -464.065 C 719.127,-466.614 724.074,-466.764 726.623,-464.366 C 729.172,-461.968 729.323,-457.02 726.924,-454.471 C 724.526,-451.922 719.579,-451.771 717.03,-454.17 C 714.481,-456.568 714.33,-461.516 716.728,-464.065"/>
  </g>
  <text font-size="12.8" style="fill: #000000;text-anchor:start;font-family:sans-serif;font-style:normal;font-weight:normal" x="676" y="-459">
    <tspan x="676" y="-459">Raza</tspan>
  </text>
  <g>
    <line style="fill: none; fill-opacity:0; stroke-width: 2; stroke: #000000" x1="306" y1="-265" x2="223.936" y2="-257.386"/>
    <path style="fill: #ffffff" d="M 209.996 -256.092 C 209.672,-259.577 212.834,-263.386 216.319,-263.709 C 219.804,-264.033 223.612,-260.871 223.936,-257.386 C 224.259,-253.901 221.098,-250.092 217.612,-249.769 C 214.127,-249.446 210.319,-252.607 209.996,-256.092z"/>
    <path style="fill: none; fill-opacity:0; stroke-width: 2; stroke: #000000" d="M 209.996 -256.092 C 209.672,-259.577 212.834,-263.386 216.319,-263.709 C 219.804,-264.033 223.612,-260.871 223.936,-257.386 C 224.259,-253.901 221.098,-250.092 217.612,-249.769 C 214.127,-249.446 210.319,-252.607 209.996,-256.092"/>
  </g>
  <text font-size="12.8" style="fill: #000000;text-anchor:start;font-family:sans-serif;font-style:normal;font-weight:normal" x="170" y="-256">
    <tspan x="170" y="-256">Peso</tspan>
  </text>
  <g>
    <line style="fill: none; fill-opacity:0; stroke-width: 2; stroke: #000000" x1="306" y1="-265" x2="228.167" y2="-237.928"/>
    <path style="fill: #ffffff" d="M 214.944 -233.329 C 213.795,-236.634 215.951,-241.09 219.256,-242.24 C 222.562,-243.389 227.018,-241.234 228.167,-237.928 C 229.317,-234.622 227.161,-230.167 223.856,-229.017 C 220.55,-227.867 216.094,-230.023 214.944,-233.329z"/>
    <path style="fill: none; fill-opacity:0; stroke-width: 2; stroke: #000000" d="M 214.944 -233.329 C 213.795,-236.634 215.951,-241.09 219.256,-242.24 C 222.562,-243.389 227.018,-241.234 228.167,-237.928 C 229.317,-234.622 227.161,-230.167 223.856,-229.017 C 220.55,-227.867 216.094,-230.023 214.944,-233.329"/>
  </g>
  <text font-size="12.8" style="fill: #000000;text-anchor:start;font-family:sans-serif;font-style:normal;font-weight:normal" x="166" y="-235">
    <tspan x="166" y="-235">Estado</tspan>
  </text>
  <g>
    <line style="fill: none; fill-opacity:0; stroke-width: 2; stroke: #000000" x1="306" y1="-265" x2="230.59" y2="-216.155"/>
    <path style="fill: #ffffff" d="M 218.839 -208.544 C 216.937,-211.481 217.971,-216.322 220.909,-218.224 C 223.847,-220.127 228.687,-219.092 230.59,-216.155 C 232.492,-213.217 231.458,-208.377 228.52,-206.474 C 225.582,-204.571 220.742,-205.606 218.839,-208.544z"/>
    <path style="fill: none; fill-opacity:0; stroke-width: 2; stroke: #000000" d="M 218.839 -208.544 C 216.937,-211.481 217.971,-216.322 220.909,-218.224 C 223.847,-220.127 228.687,-219.092 230.59,-216.155 C 232.492,-213.217 231.458,-208.377 228.52,-206.474 C 225.582,-204.571 220.742,-205.606 218.839,-208.544"/>
  </g>
  <text font-size="12.8" style="fill: #000000;text-anchor:start;font-family:sans-serif;font-style:normal;font-weight:normal" x="164" y="-209">
    <tspan x="164" y="-209">Imagen</tspan>
  </text>
  <g>
    <line style="fill: none; fill-opacity:0; stroke-width: 2; stroke: #000000" x1="1178.5" y1="-124.4" x2="1292.97" y2="-167.694"/>
    <path style="fill: #ffffff" d="M 1306.06 -172.646 C 1307.3,-169.373 1305.27,-164.861 1301.99,-163.623 C 1298.72,-162.384 1294.21,-164.42 1292.97,-167.694 C 1291.73,-170.967 1293.77,-175.479 1297.04,-176.717 C 1300.31,-177.955 1304.83,-175.92 1306.06,-172.646z"/>
    <path style="fill: none; fill-opacity:0; stroke-width: 2; stroke: #000000" d="M 1306.06 -172.646 C 1307.3,-169.373 1305.27,-164.861 1301.99,-163.623 C 1298.72,-162.384 1294.21,-164.42 1292.97,-167.694 C 1291.73,-170.967 1293.77,-175.479 1297.04,-176.717 C 1300.31,-177.955 1304.83,-175.92 1306.06,-172.646"/>
  </g>
  <g>
    <line style="fill: none; fill-opacity:0; stroke-width: 2; stroke: #000000" x1="1178.5" y1="-124.4" x2="1290.27" y2="-194.066"/>
    <path style="fill: #ffffff" d="M 1302.15 -201.471 C 1304,-198.501 1302.88,-193.679 1299.91,-191.828 C 1296.94,-189.976 1292.12,-191.095 1290.27,-194.066 C 1288.42,-197.036 1289.54,-201.858 1292.51,-203.709 C 1295.48,-205.56 1300.3,-204.441 1302.15,-201.471z"/>
    <path style="fill: none; fill-opacity:0; stroke-width: 2; stroke: #000000" d="M 1302.15 -201.471 C 1304,-198.501 1302.88,-193.679 1299.91,-191.828 C 1296.94,-189.976 1292.12,-191.095 1290.27,-194.066 C 1288.42,-197.036 1289.54,-201.858 1292.51,-203.709 C 1295.48,-205.56 1300.3,-204.441 1302.15,-201.471"/>
  </g>
  <g>
    <line style="fill: none; fill-opacity:0; stroke-width: 2; stroke: #000000" x1="1178.5" y1="-124.4" x2="1295" y2="-229"/>
    <path style="fill: #000000" d="M 1295 -229 C 1297.34,-226.396 1297.07,-221.453 1294.47,-219.115 C 1291.86,-216.777 1286.92,-217.043 1284.58,-219.647 C 1282.24,-222.251 1282.51,-227.194 1285.11,-229.532 C 1287.72,-231.87 1292.66,-231.604 1295,-229z"/>
    <path style="fill: none; fill-opacity:0; stroke-width: 2; stroke: #000000" d="M 1295 -229 C 1297.34,-226.396 1297.07,-221.453 1294.47,-219.115 C 1291.86,-216.777 1286.92,-217.043 1284.58,-219.647 C 1282.24,-222.251 1282.51,-227.194 1285.11,-229.532 C 1287.72,-231.87 1292.66,-231.604 1295,-229"/>
  </g>
  <text font-size="12.8" style="fill: #000000;text-anchor:start;font-family:sans-serif;font-style:normal;font-weight:700" x="1307" y="-226">
    <tspan x="1307" y="-226">DNI</tspan>
  </text>
  <text font-size="12.8" style="fill: #000000;text-anchor:start;font-family:sans-serif;font-style:normal;font-weight:normal" x="1310" y="-199">
    <tspan x="1310" y="-199">Nombre</tspan>
  </text>
  <text font-size="12.8" style="fill: #000000;text-anchor:start;font-family:sans-serif;font-style:normal;font-weight:normal" x="1318" y="-175">
    <tspan x="1318" y="-175">Apellido1</tspan>
  </text>
  <g>
    <line style="fill: none; fill-opacity:0; stroke-width: 2; stroke: #000000" x1="1178.5" y1="-124.4" x2="1286.34" y2="-147.817"/>
    <path style="fill: #ffffff" d="M 1300.02 -150.788 C 1300.77,-147.368 1298.09,-143.205 1294.67,-142.462 C 1291.25,-141.719 1287.08,-144.397 1286.34,-147.817 C 1285.6,-151.237 1288.28,-155.4 1291.7,-156.143 C 1295.12,-156.886 1299.28,-154.208 1300.02,-150.788z"/>
    <path style="fill: none; fill-opacity:0; stroke-width: 2; stroke: #000000" d="M 1300.02 -150.788 C 1300.77,-147.368 1298.09,-143.205 1294.67,-142.462 C 1291.25,-141.719 1287.08,-144.397 1286.34,-147.817 C 1285.6,-151.237 1288.28,-155.4 1291.7,-156.143 C 1295.12,-156.886 1299.28,-154.208 1300.02,-150.788"/>
  </g>
  <text font-size="12.8" style="fill: #000000;text-anchor:start;font-family:sans-serif;font-style:normal;font-weight:normal" x="1316" y="-149">
    <tspan x="1316" y="-149">Apellido2</tspan>
  </text>
  <g>
    <line style="fill: none; fill-opacity:0; stroke-width: 2; stroke: #000000" x1="1178.5" y1="-124.4" x2="1277.03" y2="-130.129"/>
    <path style="fill: #ffffff" d="M 1291 -130.942 C 1291.2,-127.448 1287.91,-123.751 1284.42,-123.547 C 1280.93,-123.344 1277.23,-126.635 1277.03,-130.129 C 1276.82,-133.623 1280.11,-137.321 1283.61,-137.524 C 1287.1,-137.727 1290.8,-134.436 1291,-130.942z"/>
    <path style="fill: none; fill-opacity:0; stroke-width: 2; stroke: #000000" d="M 1291 -130.942 C 1291.2,-127.448 1287.91,-123.751 1284.42,-123.547 C 1280.93,-123.344 1277.23,-126.635 1277.03,-130.129 C 1276.82,-133.623 1280.11,-137.321 1283.61,-137.524 C 1287.1,-137.727 1290.8,-134.436 1291,-130.942"/>
  </g>
  <text font-size="12.8" style="fill: #000000;text-anchor:start;font-family:sans-serif;font-style:normal;font-weight:normal" x="1297" y="-128">
    <tspan x="1297" y="-128">Direccion</tspan>
  </text>
  <g>
    <line style="fill: none; fill-opacity:0; stroke-width: 2; stroke: #000000" x1="1178.5" y1="-124.4" x2="1270.22" y2="-108.554"/>
    <path style="fill: #ffffff" d="M 1284.01 -106.17 C 1283.42,-102.721 1279.37,-99.8683 1275.93,-100.464 C 1272.48,-101.06 1269.62,-105.105 1270.22,-108.554 C 1270.81,-112.003 1274.86,-114.856 1278.31,-114.26 C 1281.76,-113.664 1284.61,-109.619 1284.01,-106.17z"/>
    <path style="fill: none; fill-opacity:0; stroke-width: 2; stroke: #000000" d="M 1284.01 -106.17 C 1283.42,-102.721 1279.37,-99.8683 1275.93,-100.464 C 1272.48,-101.06 1269.62,-105.105 1270.22,-108.554 C 1270.81,-112.003 1274.86,-114.856 1278.31,-114.26 C 1281.76,-113.664 1284.61,-109.619 1284.01,-106.17"/>
  </g>
  <text font-size="12.8" style="fill: #000000;text-anchor:start;font-family:sans-serif;font-style:normal;font-weight:normal" x="1298" y="-104">
    <tspan x="1298" y="-104">Localidad</tspan>
  </text>
  <g>
    <line style="fill: none; fill-opacity:0; stroke-width: 2; stroke: #000000" x1="1178.5" y1="-124.4" x2="1264.01" y2="-91.4007"/>
    <path style="fill: #ffffff" d="M 1277.07 -86.36 C 1275.81,-83.0948 1271.28,-81.0897 1268.02,-82.3498 C 1264.75,-83.61 1262.75,-88.1354 1264.01,-91.4007 C 1265.27,-94.666 1269.79,-96.6711 1273.06,-95.4109 C 1276.32,-94.1508 1278.33,-89.6253 1277.07,-86.36z"/>
    <path style="fill: none; fill-opacity:0; stroke-width: 2; stroke: #000000" d="M 1277.07 -86.36 C 1275.81,-83.0948 1271.28,-81.0897 1268.02,-82.3498 C 1264.75,-83.61 1262.75,-88.1354 1264.01,-91.4007 C 1265.27,-94.666 1269.79,-96.6711 1273.06,-95.4109 C 1276.32,-94.1508 1278.33,-89.6253 1277.07,-86.36"/>
  </g>
  <text font-size="12.8" style="fill: #000000;text-anchor:start;font-family:sans-serif;font-style:normal;font-weight:normal" x="1291" y="-86">
    <tspan x="1291" y="-86">CodigoPostal</tspan>
  </text>
  <g>
    <rect style="fill: #ffffff" x="269.34" y="60.9408" width="148" height="36"/>
    <rect style="fill: none; fill-opacity:0; stroke-width: 4; stroke: #0000ff" x="269.34" y="60.9408" width="148" height="36"/>
    <text font-size="12.8" style="fill: #000000;text-anchor:middle;font-family:Cascadia Code SemiBold;font-style:normal;font-weight:600" x="343.34" y="84.5408">VoluntarioCentro</text>
  </g>
  <g>
    <line style="fill: none; fill-opacity:0; stroke-width: 2; stroke: #000000" x1="269.34" y1="78.9408" x2="222.988" y2="17.009"/>
    <path style="fill: #ffffff" d="M 214.599 5.8006 C 217.401,3.70341 222.301,4.40831 224.398,7.21041 C 226.495,10.0125 225.79,14.9118 222.988,17.009 C 220.186,19.1062 215.287,18.4013 213.189,15.5992 C 211.092,12.7971 211.797,7.8978 214.599,5.8006z"/>
    <path style="fill: none; fill-opacity:0; stroke-width: 2; stroke: #000000" d="M 214.599 5.8006 C 217.401,3.70341 222.301,4.40831 224.398,7.21041 C 226.495,10.0125 225.79,14.9118 222.988,17.009 C 220.186,19.1062 215.287,18.4013 213.189,15.5992 C 211.092,12.7971 211.797,7.8978 214.599,5.8006"/>
  </g>
  <g>
    <line style="fill: none; fill-opacity:0; stroke-width: 2; stroke: #000000" x1="269.34" y1="78.9408" x2="227.981" y2="0.276742"/>
    <path style="fill: #ffffff" d="M 221.465 -12.1149 C 224.563,-13.7437 229.29,-12.2746 230.919,-9.17666 C 232.548,-6.07876 231.078,-1.35205 227.981,0.276742 C 224.883,1.90554 220.156,0.436427 218.527,-2.66148 C 216.898,-5.75939 218.367,-10.4861 221.465,-12.1149z"/>
    <path style="fill: none; fill-opacity:0; stroke-width: 2; stroke: #000000" d="M 221.465 -12.1149 C 224.563,-13.7437 229.29,-12.2746 230.919,-9.17666 C 232.548,-6.07876 231.078,-1.35205 227.981,0.276742 C 224.883,1.90554 220.156,0.436427 218.527,-2.66148 C 216.898,-5.75939 218.367,-10.4861 221.465,-12.1149"/>
  </g>
  <g>
    <line style="fill: none; fill-opacity:0; stroke-width: 2; stroke: #000000" x1="269.34" y1="78.9408" x2="230" y2="-32"/>
    <path style="fill: #000000" d="M 230 -32 C 233.299,-33.1697 237.767,-31.0407 238.937,-27.742 C 240.107,-24.4433 237.978,-19.9748 234.679,-18.805 C 231.38,-17.6353 226.912,-19.7643 225.742,-23.063 C 224.572,-26.3618 226.701,-30.8303 230,-32z"/>
    <path style="fill: none; fill-opacity:0; stroke-width: 2; stroke: #000000" d="M 230 -32 C 233.299,-33.1697 237.767,-31.0407 238.937,-27.742 C 240.107,-24.4433 237.978,-19.9748 234.679,-18.805 C 231.38,-17.6353 226.912,-19.7643 225.742,-23.063 C 224.572,-26.3618 226.701,-30.8303 230,-32"/>
  </g>
  <text font-size="12.8" style="fill: #000000;text-anchor:start;font-family:sans-serif;font-style:normal;font-weight:700" x="190" y="-27.5">
    <tspan x="190" y="-27.5">DNI</tspan>
  </text>
  <text font-size="12.8" style="fill: #000000;text-anchor:start;font-family:sans-serif;font-style:normal;font-weight:normal" x="162" y="-6.5">
    <tspan x="162" y="-6.5">Nombre</tspan>
  </text>
  <text font-size="12.8" style="fill: #000000;text-anchor:start;font-family:sans-serif;font-style:normal;font-weight:normal" x="149" y="14.5">
    <tspan x="149" y="14.5">Apellido1</tspan>
  </text>
  <g>
    <line style="fill: none; fill-opacity:0; stroke-width: 2; stroke: #000000" x1="269.34" y1="78.9408" x2="219.26" y2="43.6419"/>
    <path style="fill: #ffffff" d="M 207.817 35.5761 C 209.834,32.7154 214.711,31.871 217.572,33.8875 C 220.433,35.9039 221.277,40.7811 219.26,43.6419 C 217.244,46.5026 212.367,47.347 209.506,45.3305 C 206.645,43.3141 205.801,38.4369 207.817,35.5761z"/>
    <path style="fill: none; fill-opacity:0; stroke-width: 2; stroke: #000000" d="M 207.817 35.5761 C 209.834,32.7154 214.711,31.871 217.572,33.8875 C 220.433,35.9039 221.277,40.7811 219.26,43.6419 C 217.244,46.5026 212.367,47.347 209.506,45.3305 C 206.645,43.3141 205.801,38.4369 207.817,35.5761"/>
  </g>
  <text font-size="12.8" style="fill: #000000;text-anchor:start;font-family:sans-serif;font-style:normal;font-weight:normal" x="147" y="40.5">
    <tspan x="147" y="40.5">Apellido2</tspan>
  </text>
  <g>
    <line style="fill: none; fill-opacity:0; stroke-width: 2; stroke: #000000" x1="269.34" y1="78.9408" x2="219.129" y2="61.0377"/>
    <path style="fill: #ffffff" d="M 205.942 56.3358 C 207.117,53.0391 211.59,50.9179 214.886,52.0933 C 218.183,53.2688 220.304,57.741 219.129,61.0377 C 217.953,64.3344 213.481,66.4556 210.184,65.2802 C 206.888,64.1047 204.766,59.6326 205.942,56.3358z"/>
    <path style="fill: none; fill-opacity:0; stroke-width: 2; stroke: #000000" d="M 205.942 56.3358 C 207.117,53.0391 211.59,50.9179 214.886,52.0933 C 218.183,53.2688 220.304,57.741 219.129,61.0377 C 217.953,64.3344 213.481,66.4556 210.184,65.2802 C 206.888,64.1047 204.766,59.6326 205.942,56.3358"/>
  </g>
  <text font-size="12.8" style="fill: #000000;text-anchor:start;font-family:sans-serif;font-style:normal;font-weight:normal" x="141" y="63">
    <tspan x="141" y="63">Direccion</tspan>
  </text>
  <g>
    <line style="fill: none; fill-opacity:0; stroke-width: 2; stroke: #000000" x1="269.34" y1="78.9408" x2="210.998" y2="79.7834"/>
    <path style="fill: #ffffff" d="M 197 79.9856 C 196.949,76.4859 200.398,72.9357 203.898,72.8852 C 207.398,72.8347 210.948,76.2838 210.998,79.7834 C 211.049,83.283 207.6,86.8332 204.1,86.8837 C 200.601,86.9343 197.05,83.4852 197,79.9856z"/>
    <path style="fill: none; fill-opacity:0; stroke-width: 2; stroke: #000000" d="M 197 79.9856 C 196.949,76.4859 200.398,72.9357 203.898,72.8852 C 207.398,72.8347 210.948,76.2838 210.998,79.7834 C 211.049,83.283 207.6,86.8332 204.1,86.8837 C 200.601,86.9343 197.05,83.4852 197,79.9856"/>
  </g>
  <text font-size="12.8" style="fill: #000000;text-anchor:start;font-family:sans-serif;font-style:normal;font-weight:normal" x="129" y="85.5">
    <tspan x="129" y="85.5">Localidad</tspan>
  </text>
  <g>
    <line style="fill: none; fill-opacity:0; stroke-width: 2; stroke: #000000" x1="269.34" y1="78.9408" x2="224.21" y2="94.1965"/>
    <path style="fill: #ffffff" d="M 210.947 98.6798 C 209.827,95.3641 212.021,90.9276 215.337,89.8067 C 218.653,88.6859 223.089,90.8808 224.21,94.1965 C 225.331,97.5121 223.136,101.949 219.82,103.069 C 216.505,104.19 212.068,101.995 210.947,98.6798z"/>
    <path style="fill: none; fill-opacity:0; stroke-width: 2; stroke: #000000" d="M 210.947 98.6798 C 209.827,95.3641 212.021,90.9276 215.337,89.8067 C 218.653,88.6859 223.089,90.8808 224.21,94.1965 C 225.331,97.5121 223.136,101.949 219.82,103.069 C 216.505,104.19 212.068,101.995 210.947,98.6798"/>
  </g>
  <text font-size="12.8" style="fill: #000000;text-anchor:start;font-family:sans-serif;font-style:normal;font-weight:normal" x="122" y="103.5">
    <tspan x="122" y="103.5">CodigoPostal</tspan>
  </text>
  <g>
    <polygon style="fill: #ffffff" points="293,-103.4 343,-133.4 393,-103.4 343,-73.4 "/>
    <polygon style="fill: none; fill-opacity:0; stroke-width: 4; stroke: #ff0000" points="293,-103.4 343,-133.4 393,-103.4 343,-73.4 "/>
    <text font-size="12.8" style="fill: #000000;text-anchor:start;font-family:Cascadia Code SemiBold;font-style:normal;font-weight:600" x="347" y="-139.4">1,N</text>
    <text font-size="12.8" style="fill: #000000;text-anchor:start;font-family:Cascadia Code SemiBold;font-style:normal;font-weight:600" x="347" y="-51.4">1,1</text>
    <text font-size="12.8" style="fill: #000000;text-anchor:middle;font-family:Cascadia Code SemiBold;font-style:normal;font-weight:600" x="343" y="-97.8">Registra</text>
  </g>
  <polyline style="fill: none; fill-opacity:0; stroke-width: 2; stroke: #000000" points="343.34,60.9408 343.34,-6.2296 343,-6.2296 343,-73.4 "/>
  <polyline style="fill: none; fill-opacity:0; stroke-width: 2; stroke: #000000" points="343,-133.4 343,-190.2 342.5,-190.2 342.5,-247 "/>
  <text font-size="16.9333" style="fill: #ff0000;text-anchor:start;font-family:sans-serif;font-style:normal;font-weight:normal" x="403.5" y="-100.65">
    <tspan x="403.5" y="-100.65">1:N</tspan>
  </text>
  <g>
    <polygon style="fill: #ffffff" points="706,78.85 744.75,55.6 783.5,78.85 744.75,102.1 "/>
    <polygon style="fill: none; fill-opacity:0; stroke-width: 4; stroke: #ff0000" points="706,78.85 744.75,55.6 783.5,78.85 744.75,102.1 "/>
    <text font-size="12.8" style="fill: #000000;text-anchor:end;font-family:Cascadia Code SemiBold;font-style:normal;font-weight:600" x="700" y="72.85">1,1</text>
    <text font-size="12.8" style="fill: #000000;text-anchor:start;font-family:Cascadia Code SemiBold;font-style:normal;font-weight:600" x="789.5" y="72.85">1,N</text>
    <text font-size="12.8" style="fill: #000000;text-anchor:middle;font-family:Cascadia Code SemiBold;font-style:normal;font-weight:600" x="744.75" y="84.45">Añade</text>
  </g>
  <g>
    <rect style="fill: #ffffff" x="926.296" y="59.6" width="110.5" height="36"/>
    <rect style="fill: none; fill-opacity:0; stroke-width: 4; stroke: #0000ff" x="926.296" y="59.6" width="110.5" height="36"/>
    <text font-size="12.8" style="fill: #000000;text-anchor:middle;font-family:Cascadia Code SemiBold;font-style:normal;font-weight:600" x="981.546" y="83.2">LoginCentro</text>
  </g>
  <g>
    <line style="fill: none; fill-opacity:0; stroke-width: 2; stroke: #000000" x1="1036.8" y1="59.6" x2="1073.22" y2="43.9283"/>
    <path style="fill: #ffffff" d="M 1086.08 38.3952 C 1087.46,41.6103 1085.63,46.2086 1082.42,47.5919 C 1079.2,48.9751 1074.6,47.1433 1073.22,43.9283 C 1071.84,40.7132 1073.67,36.1149 1076.88,34.7316 C 1080.1,33.3484 1084.7,35.1802 1086.08,38.3952z"/>
    <path style="fill: none; fill-opacity:0; stroke-width: 2; stroke: #000000" d="M 1086.08 38.3952 C 1087.46,41.6103 1085.63,46.2086 1082.42,47.5919 C 1079.2,48.9751 1074.6,47.1433 1073.22,43.9283 C 1071.84,40.7132 1073.67,36.1149 1076.88,34.7316 C 1080.1,33.3484 1084.7,35.1802 1086.08,38.3952"/>
  </g>
  <text font-size="12.8" style="fill: #000000;text-anchor:start;font-family:sans-serif;font-style:normal;font-weight:normal" x="1095.11" y="41.794">
    <tspan x="1095.11" y="41.794">Password</tspan>
  </text>
  <g>
    <line style="fill: none; fill-opacity:0; stroke-width: 2; stroke: #000000" x1="1036.8" y1="59.6" x2="1072.09" y2="63.3958"/>
    <path style="fill: #ffffff" d="M 1086.01 64.8931 C 1085.63,68.373 1081.78,71.4786 1078.3,71.1043 C 1074.82,70.73 1071.71,66.8758 1072.09,63.3958 C 1072.46,59.9159 1076.31,56.8103 1079.79,57.1846 C 1083.27,57.5589 1086.38,61.4131 1086.01,64.8931z"/>
    <path style="fill: none; fill-opacity:0; stroke-width: 2; stroke: #000000" d="M 1086.01 64.8931 C 1085.63,68.373 1081.78,71.4786 1078.3,71.1043 C 1074.82,70.73 1071.71,66.8758 1072.09,63.3958 C 1072.46,59.9159 1076.31,56.8103 1079.79,57.1846 C 1083.27,57.5589 1086.38,61.4131 1086.01,64.8931"/>
  </g>
  <text font-size="12.8" style="fill: #000000;text-anchor:start;font-family:sans-serif;font-style:normal;font-weight:normal" x="1099.69" y="67.57">
    <tspan x="1099.69" y="67.57">Rol</tspan>
  </text>
  <polyline style="fill: none; fill-opacity:0; stroke-width: 2; stroke: #000000" points="783.5,78.85 854.898,78.85 854.898,77.6 926.296,77.6 "/>
  <g>
    <rect style="fill: #ffffff" x="749" y="-451.7" width="58" height="36"/>
    <rect style="fill: none; fill-opacity:0; stroke-width: 4; stroke: #0000ff" x="749" y="-451.7" width="58" height="36"/>
    <text font-size="12.8" style="fill: #000000;text-anchor:middle;font-family:Cascadia Code SemiBold;font-style:normal;font-weight:600" x="778" y="-428.1">Raza</text>
  </g>
  <g>
    <line style="fill: none; fill-opacity:0; stroke-width: 2; stroke: #000000" x1="749" y1="-433.7" x2="734" y2="-485.75"/>
    <path style="fill: #000000" d="M 734 -485.75 C 737.363,-486.719 741.695,-484.325 742.665,-480.962 C 743.634,-477.599 741.24,-473.267 737.877,-472.297 C 734.514,-471.328 730.181,-473.722 729.212,-477.085 C 728.243,-480.448 730.637,-484.781 734,-485.75z"/>
    <path style="fill: none; fill-opacity:0; stroke-width: 2; stroke: #000000" d="M 734 -485.75 C 737.363,-486.719 741.695,-484.325 742.665,-480.962 C 743.634,-477.599 741.24,-473.267 737.877,-472.297 C 734.514,-471.328 730.181,-473.722 729.212,-477.085 C 728.243,-480.448 730.637,-484.781 734,-485.75"/>
  </g>
  <text font-size="12.8" style="fill: #000000;text-anchor:start;font-family:sans-serif;font-style:normal;font-weight:700" x="679" y="-487">
    <tspan x="679" y="-487">idRaza</tspan>
  </text>
  <g>
    <polygon style="fill: #ffffff" points="441,-415.7 491,-445.7 541,-415.7 491,-385.7 "/>
    <polygon style="fill: none; fill-opacity:0; stroke-width: 4; stroke: #ff0000" points="441,-415.7 491,-445.7 541,-415.7 491,-385.7 "/>
    <text font-size="12.8" style="fill: #000000;text-anchor:end;font-family:Cascadia Code SemiBold;font-style:normal;font-weight:600" x="435" y="-421.7">1,N</text>
    <text font-size="12.8" style="fill: #000000;text-anchor:start;font-family:Cascadia Code SemiBold;font-style:normal;font-weight:600" x="547" y="-421.7">1,1</text>
    <text font-size="12.8" style="fill: #000000;text-anchor:middle;font-family:Cascadia Code SemiBold;font-style:normal;font-weight:600" x="491" y="-410.1">Contiene</text>
  </g>
  <polyline style="fill: none; fill-opacity:0; stroke-width: 2; stroke: #000000" points="749,-415.7 748,-415.7 542,-415.7 541,-415.7 "/>
  <polyline style="fill: none; fill-opacity:0; stroke-width: 2; stroke: #000000" points="441,-415.7 441,-414.75 342.5,-414.75 342.5,-283 "/>
  <text font-size="16.9333" style="fill: #ff0000;text-anchor:start;font-family:sans-serif;font-style:normal;font-weight:normal" x="729" y="46.3">
    <tspan x="729" y="46.3">1:N</tspan>
  </text>
  <text font-size="16.9333" style="fill: #ff0000;text-anchor:start;font-family:sans-serif;font-style:normal;font-weight:normal" x="457" y="-452.75">
    <tspan x="457" y="-452.75">N:1</tspan>
  </text>
  <polyline style="fill: none; fill-opacity:0; stroke-width: 2; stroke: #000000" points="706,78.85 561.67,78.85 561.67,78.9408 417.34,78.9408 "/>
  <g>
    <rect style="fill: #ffffff" x="773.9" y="-282.8" width="88" height="36"/>
    <rect style="fill: none; fill-opacity:0; stroke-width: 4; stroke: #0000ff" x="773.9" y="-282.8" width="88" height="36"/>
    <text font-size="12.8" style="fill: #000000;text-anchor:middle;font-family:Cascadia Code SemiBold;font-style:normal;font-weight:600" x="817.9" y="-259.2">Adopcion</text>
  </g>
  <g>
    <line style="fill: none; fill-opacity:0; stroke-width: 2; stroke: #000000" x1="861.9" y1="-282.8" x2="939" y2="-355"/>
    <path style="fill: #000000" d="M 939 -355 C 941.392,-352.445 941.23,-347.498 938.675,-345.106 C 936.121,-342.713 931.173,-342.876 928.781,-345.431 C 926.389,-347.985 926.551,-352.932 929.106,-355.325 C 931.661,-357.717 936.608,-357.555 939,-355z"/>
    <path style="fill: none; fill-opacity:0; stroke-width: 2; stroke: #000000" d="M 939 -355 C 941.392,-352.445 941.23,-347.498 938.675,-345.106 C 936.121,-342.713 931.173,-342.876 928.781,-345.431 C 926.389,-347.985 926.551,-352.932 929.106,-355.325 C 931.661,-357.717 936.608,-357.555 939,-355"/>
  </g>
  <text font-size="12.8" style="fill: #000000;text-anchor:start;font-family:sans-serif;font-style:normal;font-weight:700" x="951" y="-347">
    <tspan x="951" y="-347">IdAdopcion</tspan>
  </text>
  <g>
    <line style="fill: none; fill-opacity:0; stroke-width: 2; stroke: #000000" x1="861.9" y1="-282.8" x2="935.749" y2="-321.971"/>
    <path style="fill: #ffffff" d="M 948.117 -328.531 C 949.757,-325.439 948.305,-320.707 945.213,-319.067 C 942.121,-317.427 937.389,-318.879 935.749,-321.971 C 934.109,-325.063 935.561,-329.795 938.653,-331.435 C 941.745,-333.075 946.477,-331.623 948.117,-328.531z"/>
    <path style="fill: none; fill-opacity:0; stroke-width: 2; stroke: #000000" d="M 948.117 -328.531 C 949.757,-325.439 948.305,-320.707 945.213,-319.067 C 942.121,-317.427 937.389,-318.879 935.749,-321.971 C 934.109,-325.063 935.561,-329.795 938.653,-331.435 C 941.745,-333.075 946.477,-331.623 948.117,-328.531"/>
  </g>
  <text font-size="12.8" style="fill: #000000;text-anchor:start;font-family:sans-serif;font-style:normal;font-weight:normal" x="961" y="-322">
    <tspan x="961" y="-322">FechaAdopcion</tspan>
  </text>
  <g>
    <polygon style="fill: #ffffff" points="512.4,-264.55 551.15,-287.8 589.9,-264.55 551.15,-241.3 "/>
    <polygon style="fill: none; fill-opacity:0; stroke-width: 4; stroke: #ff0000" points="512.4,-264.55 551.15,-287.8 589.9,-264.55 551.15,-241.3 "/>
    <text font-size="12.8" style="fill: #000000;text-anchor:end;font-family:Cascadia Code SemiBold;font-style:normal;font-weight:600" x="506.4" y="-270.55">1,1</text>
    <text font-size="12.8" style="fill: #000000;text-anchor:start;font-family:Cascadia Code SemiBold;font-style:normal;font-weight:600" x="595.9" y="-270.55">1,N</text>
    <text font-size="12.8" style="fill: #000000;text-anchor:middle;font-family:Cascadia Code SemiBold;font-style:normal;font-weight:600" x="551.15" y="-258.95">Tiene</text>
  </g>
  <g>
    <polygon style="fill: #ffffff" points="846.4,-105.8 881.4,-126.8 916.4,-105.8 881.4,-84.8 "/>
    <polygon style="fill: none; fill-opacity:0; stroke-width: 4; stroke: #ff0000" points="846.4,-105.8 881.4,-126.8 916.4,-105.8 881.4,-84.8 "/>
    <text font-size="12.8" style="fill: #000000;text-anchor:end;font-family:Cascadia Code SemiBold;font-style:normal;font-weight:600" x="840.4" y="-111.8">1,N</text>
    <text font-size="12.8" style="fill: #000000;text-anchor:start;font-family:Cascadia Code SemiBold;font-style:normal;font-weight:600" x="922.4" y="-111.8">1,1</text>
    <text font-size="12.8" style="fill: #000000;text-anchor:middle;font-family:Cascadia Code SemiBold;font-style:normal;font-weight:600" x="881.4" y="-100.2">Hace</text>
  </g>
  <polyline style="fill: none; fill-opacity:0; stroke-width: 2; stroke: #000000" points="379,-265 445.7,-265 445.7,-264.55 512.4,-264.55 "/>
  <polyline style="fill: none; fill-opacity:0; stroke-width: 2; stroke: #000000" points="589.9,-264.55 681.9,-264.55 681.9,-264.8 773.9,-264.8 "/>
  <polyline style="fill: none; fill-opacity:0; stroke-width: 2; stroke: #000000" points="773.9,-246.8 773.9,-106 846.4,-106 846.4,-105.8 "/>
  <polyline style="fill: none; fill-opacity:0; stroke-width: 2; stroke: #000000" points="916.4,-105.8 995.95,-105.8 995.95,-106.4 1075.5,-106.4 "/>
  <text font-size="16.9333" style="fill: #ff0000;text-anchor:start;font-family:sans-serif;font-style:normal;font-weight:normal" x="541.9" y="-304.05">
    <tspan x="541.9" y="-304.05">1:N</tspan>
  </text>
  <text font-size="16.9333" style="fill: #ff0000;text-anchor:start;font-family:sans-serif;font-style:normal;font-weight:normal" x="867.9" y="-138.05">
    <tspan x="867.9" y="-138.05">N:1</tspan>
  </text>
  <g>
    <line style="fill: none; fill-opacity:0; stroke-width: 2; stroke: #000000" x1="1036.8" y1="59.6" x2="1075" y2="6"/>
    <path style="fill: #000000" d="M 1075 6 C 1077.85,8.03146 1078.67,12.913 1076.64,15.7632 C 1074.61,18.6133 1069.72,19.4319 1066.87,17.4005 C 1064.02,15.369 1063.21,10.4875 1065.24,7.63733 C 1067.27,4.78721 1072.15,3.96854 1075,6z"/>
    <path style="fill: none; fill-opacity:0; stroke-width: 2; stroke: #000000" d="M 1075 6 C 1077.85,8.03146 1078.67,12.913 1076.64,15.7632 C 1074.61,18.6133 1069.72,19.4319 1066.87,17.4005 C 1064.02,15.369 1063.21,10.4875 1065.24,7.63733 C 1067.27,4.78721 1072.15,3.96854 1075,6"/>
  </g>
  <text font-size="12.8" style="fill: #000000;text-anchor:start;font-family:sans-serif;font-style:normal;font-weight:700" x="1090" y="12">
    <tspan x="1090" y="12">IdLogin</tspan>
  </text>
</svg>
